<svg xmlns="http://www.w3.org/2000/svg" viewBox="0 0 1024 1024" width="1024" height="1024">
  <!-- Зелёный фон -->
  <circle cx="512" cy="512" r="512" fill="#1B5E20"/>
  <!-- Белый мяч -->
  <circle cx="512" cy="512" r="340" fill="white" stroke="#222" stroke-width="12"/>
  <!-- Пятиугольник в центре -->
  <polygon points="512,300 580,370 555,455 469,455 444,370" fill="#222"/>
  <!-- Пятиугольники по краям -->
  <polygon points="320,390 388,360 410,430 355,480 295,455" fill="#222"/>
  <polygon points="704,390 636,360 614,430 669,480 729,455" fill="#222"/>
  <polygon points="390,640 444,590 512,620 580,590 634,640 610,710 414,710" fill="#222"/>
  <!-- Линии от центрального пятиугольника -->
  <line x1="512" y1="300" x2="512" y2="240" stroke="#222" stroke-width="10"/>
  <line x1="580" y1="370" x2="636" y2="360" stroke="#222" stroke-width="10"/>
  <line x1="555" y1="455" x2="580" y2="510" stroke="#222" stroke-width="10"/>
  <line x1="469" y1="455" x2="444" y2="510" stroke="#222" stroke-width="10"/>
  <line x1="444" y1="370" x2="388" y2="360" stroke="#222" stroke-width="10"/>
</svg>
